<?xml version="1.0" standalone="no"?>
<!DOCTYPE svg PUBLIC "-//W3C//DTD SVG 20010904//EN"
 "http://www.w3.org/TR/2001/REC-SVG-20010904/DTD/svg10.dtd">
<svg version="1.0" xmlns="http://www.w3.org/2000/svg"
 width="960.000000pt" height="960.000000pt" viewBox="0 0 960.000000 960.000000"
 preserveAspectRatio="xMidYMid meet">
<metadata>
Created by potrace 1.14, written by Peter Selinger 2001-2017
</metadata>
<g transform="translate(0.000000,960.000000) scale(0.100000,-0.100000)"
fill="#000000" stroke="none">
<path d="M4685 8385 c-130 -26 -210 -46 -252 -66 -24 -10 -46 -19 -50 -19 -4
0 -20 -12 -35 -27 -41 -40 -38 -79 13 -139 l41 -49 -7 -125 c-10 -176 -9 -175
-49 -222 -68 -79 -36 -145 85 -175 94 -22 298 -13 368 17 28 12 49 26 46 30
-2 4 4 15 15 25 25 23 25 65 1 107 -21 36 -27 90 -23 230 2 78 5 90 27 112 13
13 32 23 42 21 10 -2 26 -4 35 -4 21 -1 54 -55 62 -104 13 -70 -12 -225 -47
-295 -39 -81 -33 -107 38 -142 47 -24 58 -25 210 -24 135 1 168 4 208 21 27
10 49 23 50 29 0 5 9 18 19 28 27 29 22 62 -14 108 l-33 40 -6 202 c-4 110
-11 215 -17 232 -41 127 -127 184 -278 185 -77 0 -94 -3 -148 -30 -34 -16 -71
-39 -83 -50 -32 -30 -53 -27 -53 7 0 46 -11 69 -36 81 -30 13 -39 13 -129 -4z"/>
<path d="M3700 8220 c-67 -7 -187 -36 -200 -50 -9 -9 -85 -51 -112 -61 -16 -6
-28 -14 -28 -19 0 -4 -19 -20 -41 -36 -42 -29 -107 -109 -142 -173 -38 -70
-51 -182 -32 -279 21 -108 123 -225 232 -263 121 -43 290 -28 430 39 69 33
176 107 219 154 32 34 41 47 94 154 75 151 52 302 -64 417 -53 53 -143 100
-211 112 -22 4 -47 8 -55 9 -8 2 -49 0 -90 -4z m-106 -294 c56 -23 170 -195
174 -262 4 -63 -47 -69 -105 -14 -66 62 -158 226 -146 259 13 33 30 37 77 17z"/>
<path d="M6005 8130 c-75 -12 -142 -38 -196 -76 -27 -19 -52 -34 -57 -34 -15
0 -101 -139 -118 -190 -24 -73 -15 -199 18 -272 48 -101 136 -187 251 -242 89
-43 152 -56 267 -56 99 0 108 2 158 31 58 33 82 72 82 133 0 56 -17 65 -123
64 -111 -2 -163 17 -219 80 -49 55 -51 109 -3 80 6 -3 26 -9 45 -13 19 -4 55
-19 80 -32 24 -14 53 -27 63 -29 10 -1 44 -15 75 -29 68 -31 131 -34 166 -8
75 55 94 218 39 334 -17 35 -48 83 -69 106 -102 112 -303 179 -459 153z m214
-247 c22 -34 22 -37 6 -49 -13 -10 -25 -10 -58 2 -75 26 -87 52 -36 77 41 19
59 13 88 -30z"/>
<path d="M2452 7918 c-24 -11 -57 -36 -75 -54 -17 -19 -47 -39 -67 -45 -19 -7
-44 -18 -55 -25 -11 -8 -25 -14 -33 -14 -23 0 -135 -82 -191 -139 -153 -159
-234 -383 -209 -576 32 -250 225 -427 481 -443 87 -5 221 11 241 30 6 4 16 8
24 8 25 0 156 68 211 109 30 23 52 41 49 41 -4 0 13 19 36 43 51 51 115 144
146 212 12 28 26 52 31 55 16 11 59 116 59 146 0 38 -27 130 -47 160 -22 34
-73 48 -115 31 -34 -15 -78 -84 -78 -125 0 -11 -16 -43 -35 -72 -19 -29 -35
-55 -35 -58 0 -10 -53 -62 -63 -62 -4 0 -15 -7 -23 -15 -28 -27 -122 -48 -196
-43 -117 9 -256 95 -314 194 -46 79 -28 174 41 215 92 55 158 66 255 43 74
-18 145 -17 183 1 52 26 100 98 105 159 5 60 -10 96 -59 146 -45 45 -96 75
-151 88 -60 15 -65 15 -116 -10z"/>
<path d="M6900 7723 c-89 -30 -111 -65 -90 -147 15 -58 15 -95 -2 -146 -10
-31 -35 -132 -58 -235 -22 -100 -70 -275 -79 -293 -14 -26 -38 -34 -62 -22
-23 13 -24 25 -4 80 20 55 19 95 -2 130 -20 35 -100 80 -140 80 -49 0 -125
-45 -156 -92 -25 -38 -28 -50 -25 -103 6 -83 36 -142 108 -209 91 -83 190
-126 293 -126 60 0 174 28 262 65 17 7 37 16 45 19 8 3 22 10 30 15 20 11 81
43 100 51 8 4 62 30 120 59 189 92 247 105 344 79 37 -10 50 -9 71 2 14 7 23
15 21 17 -2 2 7 16 20 30 13 14 24 33 24 42 0 32 -56 110 -115 160 -74 63
-111 81 -164 81 -33 0 -48 -6 -71 -30 -17 -17 -30 -40 -30 -52 0 -29 -39 -84
-68 -97 -59 -28 -88 -3 -78 67 5 38 13 53 44 79 20 18 44 35 52 38 25 8 54 80
46 111 -8 32 -63 109 -98 139 -13 11 -50 43 -83 71 -71 61 -157 116 -204 132
-19 7 -34 12 -35 11 -1 0 -8 -3 -16 -6z"/>
<path d="M4625 7113 c-27 -2 -79 -8 -115 -14 -36 -6 -77 -13 -93 -15 -15 -2
-71 -15 -125 -30 -53 -14 -109 -29 -124 -31 -16 -3 -28 -11 -28 -18 0 -8 -10
-11 -27 -9 -16 2 -22 1 -15 -2 22 -10 13 -22 -24 -28 -24 -5 -34 -12 -32 -22
2 -8 8 -14 13 -12 6 2 9 6 7 11 -3 11 16 8 23 -3 5 -8 11 -7 20 0 8 7 22 10
32 7 16 -4 16 -5 -2 -11 -85 -32 -90 -35 -68 -35 13 -1 40 5 60 13 77 29 302
76 443 92 170 19 434 15 595 -10 707 -111 1312 -527 1674 -1153 64 -111 101
-195 101 -228 0 -17 5 -36 11 -42 8 -8 6 -24 -7 -59 -9 -27 -19 -91 -22 -141
l-4 -93 -40 -36 c-53 -47 -95 -64 -162 -64 -85 0 -100 24 -71 116 21 66 36
300 25 388 -12 98 -58 152 -136 162 -33 5 -50 -1 -106 -35 -37 -23 -69 -41
-72 -41 -4 0 -6 8 -6 19 0 16 -5 18 -45 10 -77 -14 -237 -124 -276 -189 -10
-16 -23 -30 -29 -30 -5 0 -14 -10 -21 -21 -9 -18 -8 -24 5 -31 21 -12 20 -35
-2 -47 -13 -7 -23 -6 -31 2 -9 9 -14 8 -21 -3 -14 -21 -12 -30 5 -30 18 0 20
-17 4 -22 -9 -3 -9 -10 0 -26 14 -26 33 -28 51 -7 18 22 49 18 59 -7 10 -27 5
-36 -11 -20 -18 18 -27 15 -48 -20 -11 -18 -25 -33 -32 -33 -7 0 -21 -17 -31
-38 -22 -44 -33 -41 -42 13 -9 54 -22 42 -30 -28 -4 -31 -10 -68 -14 -82 -7
-23 -9 -21 -15 17 -7 41 -26 69 -26 41 -2 -69 -21 -154 -38 -167 -10 -9 -35
-37 -55 -62 -20 -25 -48 -51 -62 -59 -14 -7 -25 -21 -25 -31 0 -27 -21 -34
-37 -13 -8 10 -28 26 -46 34 -53 25 -60 64 -46 259 6 91 15 174 20 183 12 24
11 28 -6 28 -11 0 -15 11 -15 40 0 42 12 52 29 23 5 -10 12 -15 15 -13 9 9 49
230 43 236 -3 4 -26 3 -49 0 -37 -6 -46 -11 -55 -37 -7 -17 -21 -33 -32 -36
-12 -3 -21 -10 -21 -15 0 -26 -76 -160 -111 -195 -41 -42 -104 -81 -114 -71
-4 3 -7 50 -8 105 -2 78 -6 105 -23 133 -41 71 -134 44 -229 -67 -87 -102
-100 -132 -100 -235 0 -83 1 -88 30 -118 17 -17 42 -39 58 -48 15 -9 27 -21
27 -27 0 -6 -29 -55 -65 -110 -35 -55 -65 -105 -65 -111 0 -16 -90 -98 -128
-118 -54 -28 -106 -21 -151 20 l-40 35 -12 -40 c-11 -37 -29 -56 -29 -31 0 17
30 83 44 100 15 16 101 279 94 285 -2 3 -21 -44 -41 -103 -21 -59 -41 -113
-46 -120 -12 -19 -4 259 8 291 9 24 8 27 -9 27 -26 0 -25 12 4 39 14 13 53 29
97 39 68 16 74 20 77 44 2 20 10 28 32 33 20 4 29 14 33 31 4 22 1 25 -16 20
-25 -6 -77 4 -77 15 0 5 18 27 40 49 l40 40 -58 0 c-36 0 -66 -6 -80 -16 -13
-9 -29 -13 -37 -10 -11 4 -10 14 6 55 10 28 28 108 39 179 11 70 22 140 25
156 5 28 4 28 -30 23 -19 -3 -93 -29 -165 -58 -101 -40 -130 -56 -130 -70 0
-15 -19 -32 -58 -54 -1 -1 -16 -71 -33 -156 -17 -84 -36 -157 -42 -161 -7 -4
-23 -8 -37 -8 -32 0 -56 -15 -41 -24 6 -4 11 -16 11 -26 0 -14 -8 -20 -32 -22
-27 -2 -32 -7 -30 -23 2 -11 5 -47 6 -80 l3 -60 44 0 44 0 3 -77 c2 -52 7 -80
17 -88 24 -20 17 -40 -18 -55 -30 -12 -33 -17 -29 -45 2 -17 12 -34 21 -37 9
-3 22 -7 29 -9 10 -3 5 -15 -17 -43 -17 -21 -34 -47 -38 -58 -11 -27 -138
-163 -153 -163 -6 0 -26 -10 -43 -22 -27 -19 -42 -22 -111 -19 -92 3 -141 25
-208 93 -42 42 -42 45 -28 82 7 19 16 25 33 24 33 -3 242 148 319 231 72 77
98 128 97 196 -1 92 -44 162 -116 186 -51 17 -185 6 -251 -20 -127 -50 -289
-202 -372 -347 -43 -76 -45 -82 -46 -164 -1 -47 2 -89 6 -95 12 -17 38 -98 45
-137 6 -40 -9 -53 -20 -17 -7 20 -8 20 -26 3 -16 -15 -19 -26 -14 -59 29 -178
189 -283 389 -254 114 16 265 76 273 109 3 11 20 27 39 36 43 21 207 190 233
243 20 37 25 41 60 41 22 0 44 -6 51 -15 13 -15 9 -18 -25 -17 -17 1 -18 0 -2
-4 22 -7 17 -28 -8 -32 -10 -3 -15 0 -11 7 4 6 3 11 -3 11 -18 0 -23 -21 -8
-38 20 -23 5 -62 -23 -62 -25 0 -25 -4 0 -32 10 -13 25 -31 32 -41 11 -14 22
-16 59 -11 41 6 48 10 56 37 4 17 15 33 22 35 11 4 13 -3 7 -34 -15 -76 -14
-79 23 -82 72 -7 190 52 297 149 91 82 188 194 213 246 13 26 40 71 61 98 20
28 61 88 92 135 30 47 69 98 87 113 33 28 77 44 88 33 4 -3 -10 -61 -30 -129
-50 -165 -59 -227 -46 -304 12 -68 38 -114 81 -146 21 -16 43 -21 90 -21 85 1
137 26 221 107 58 56 69 72 70 102 1 35 1 35 40 28 37 -5 40 -3 96 56 54 58
81 74 81 50 0 -13 51 -101 56 -96 2 2 -5 50 -16 107 -17 91 -19 123 -6 109 2
-2 20 -37 40 -76 30 -61 40 -73 61 -73 14 0 25 5 25 10 0 6 -9 10 -19 10 -11
0 -21 9 -24 23 -13 52 -18 117 -12 136 5 18 12 20 46 16 45 -6 79 -21 79 -35
0 -6 -4 -10 -8 -10 -4 0 -14 -16 -21 -36 -14 -39 -6 -53 29 -54 12 -1 12 -2
-2 -10 -10 -6 -14 -18 -11 -30 3 -13 0 -20 -9 -20 -27 0 -56 -29 -51 -50 5
-17 11 -20 34 -15 24 5 28 4 23 -9 -3 -8 -21 -18 -40 -22 -47 -9 -48 -16 -8
-43 43 -30 105 -37 191 -21 96 17 136 44 259 173 l109 114 91 -5 c110 -5 134
4 223 85 34 30 63 54 65 52 1 -2 13 -36 25 -76 29 -89 76 -148 131 -163 22 -6
41 -14 44 -18 14 -22 23 -359 10 -372 -5 -5 -121 -32 -258 -60 -137 -27 -276
-59 -310 -70 -34 -11 -149 -36 -256 -55 -107 -20 -314 -58 -460 -85 -363 -67
-785 -144 -965 -176 -134 -23 -300 -57 -348 -71 -12 -3 -17 -13 -15 -30 4 -40
-20 -39 -37 0 -8 20 -19 38 -24 41 -4 3 -51 -3 -102 -14 -52 -11 -247 -49
-434 -85 -1356 -263 -1286 -248 -1327 -277 -14 -10 -22 -10 -38 0 -17 10 -40
8 -138 -14 -375 -83 -898 -267 -1287 -453 -82 -39 -156 -70 -163 -69 -24 5
-118 259 -182 493 -97 355 -149 729 -150 1082 0 93 -2 103 -20 113 -12 6 -33
10 -48 8 l-27 -3 2 -190 c5 -482 106 -1002 280 -1444 25 -63 41 -117 36 -122
-5 -5 -65 -41 -133 -80 -280 -159 -524 -337 -697 -505 l-33 -32 0 -114 0 -114
148 50 147 49 220 6 220 6 -3 33 c-2 24 1 32 12 32 10 0 16 -9 16 -26 0 -39
18 -64 45 -64 34 0 195 -52 344 -111 l124 -50 29 36 c16 19 35 35 41 35 7 0
43 -40 81 -90 206 -270 461 -525 766 -765 91 -72 351 -246 465 -312 407 -236
890 -411 1370 -498 122 -22 185 -30 428 -55 138 -14 494 -12 667 5 163 16 380
48 485 72 188 43 394 98 459 123 l29 10 -23 20 c-12 10 -19 23 -17 27 11 17
-10 35 -32 28 -12 -3 -18 -11 -15 -17 4 -6 1 -9 -7 -6 -14 5 -60 -5 -194 -42
-93 -26 -103 -28 -337 -69 -97 -17 -210 -33 -250 -36 -40 -4 -79 -8 -87 -11
-37 -12 -473 -16 -622 -5 -1187 88 -2226 631 -2967 1550 -115 144 -114 142
-67 191 46 47 65 51 65 12 0 -35 42 -98 80 -117 42 -21 116 -19 155 5 31 19
85 89 85 109 0 5 -4 12 -8 15 -8 5 -209 -21 -222 -29 -12 -8 -39 29 -46 62
l-6 32 145 72 c119 59 143 75 139 91 -5 20 17 25 35 7 7 -7 31 -1 79 20 38 16
125 53 194 82 69 28 166 68 215 89 50 21 196 82 325 135 129 53 260 108 290
122 121 56 198 85 260 98 78 16 103 23 390 120 124 41 231 75 239 75 13 0 362
113 521 168 117 41 218 69 330 92 52 10 163 40 245 65 229 71 247 76 285 85
65 15 252 71 271 80 10 6 125 42 256 81 131 38 328 97 438 130 110 33 245 73
300 89 55 16 204 63 330 104 198 65 232 73 241 61 14 -19 108 -21 102 -3 -3 7
-15 15 -29 19 -24 7 -24 7 4 8 15 1 27 6 27 12 0 5 25 21 55 34 30 14 55 30
55 36 0 7 9 9 24 5 38 -9 132 30 152 63 9 15 25 33 36 40 17 10 22 9 32 -5 12
-16 16 -15 51 9 36 25 37 26 16 39 -11 7 -21 17 -21 22 0 4 6 4 13 -2 18 -15
103 -4 148 19 24 12 39 27 41 41 2 15 13 26 33 32 76 25 232 142 365 276 326
326 543 650 566 844 9 75 -2 123 -32 142 -23 16 -28 15 -67 -2 -48 -21 -187
-151 -274 -255 -36 -44 -63 -67 -71 -64 -9 3 -45 -27 -95 -81 -125 -134 -196
-167 -265 -124 -66 41 -67 29 64 438 2 7 0 11 -5 8 -4 -3 -32 -71 -61 -151
-29 -80 -55 -144 -57 -141 -2 2 9 50 26 107 17 56 29 104 27 106 -2 3 -10 -13
-16 -34 -20 -62 -25 -61 -31 2 -3 39 -1 71 8 93 12 30 12 32 -7 32 -26 0 -25
12 3 37 13 12 54 28 100 38 73 16 77 18 77 45 0 22 5 29 29 33 21 4 30 13 33
32 6 29 -2 38 -22 25 -20 -12 -60 9 -53 29 3 9 22 31 42 48 l36 33 -55 0 c-36
0 -70 -7 -94 -20 -22 -10 -42 -17 -46 -15 -4 2 2 30 13 62 19 58 69 342 61
354 -7 12 -75 -9 -199 -59 -105 -42 -122 -53 -134 -80 -8 -18 -19 -32 -25 -32
-27 -1 -36 -25 -66 -170 -17 -85 -33 -156 -35 -159 -3 -2 -22 -7 -42 -10 -34
-6 -38 -10 -38 -36 0 -25 -5 -31 -25 -33 -48 -6 -50 -9 -35 -39 8 -15 15 -51
15 -80 l0 -52 43 -3 42 -3 3 -72 c2 -47 8 -75 17 -83 23 -19 18 -39 -12 -46
-36 -9 -41 -17 -34 -62 5 -31 11 -38 35 -42 l28 -5 -36 -37 c-20 -20 -36 -42
-36 -47 0 -13 -129 -151 -140 -151 -5 0 -29 20 -54 45 -41 39 -46 49 -46 87 0
44 31 278 50 377 5 29 7 57 4 63 -3 5 -1 21 4 36 6 15 13 60 15 100 4 62 2 72
-12 71 -9 0 -72 -22 -141 -48 -101 -38 -127 -52 -137 -73 -7 -14 -24 -33 -38
-42 -14 -9 -25 -25 -25 -36 0 -41 -18 -26 -60 48 -153 271 -387 548 -600 712
-25 19 -51 40 -58 47 -38 36 -252 169 -357 222 -417 208 -813 286 -1300 254z
m-440 -113 c3 -5 1 -10 -4 -10 -6 0 -11 5 -11 10 0 6 2 10 4 10 3 0 8 -4 11
-10z m3865 -885 c-7 -9 -15 -13 -18 -10 -3 2 1 11 8 20 7 9 15 13 18 10 3 -2
-1 -11 -8 -20z m-1719 -396 c-13 -11 -27 -17 -30 -13 -7 7 28 34 43 34 6 -1 0
-10 -13 -21z m1359 -13 c0 -3 -14 -14 -31 -26 -36 -27 -54 -17 -19 10 23 18
50 26 50 16z m-1300 -21 c0 -2 -18 -32 -40 -66 -22 -34 -40 -74 -40 -89 0 -15
11 -62 25 -105 13 -43 22 -81 20 -84 -3 -2 -15 5 -28 17 -30 28 -37 28 -37 -4
0 -37 18 -64 42 -64 16 0 18 -3 9 -14 -19 -23 9 -75 69 -129 l53 -48 -16 -35
c-34 -70 -123 -95 -187 -51 -19 12 -49 50 -69 87 -36 65 -36 65 -39 213 -3 81
-8 147 -13 147 -5 0 -9 4 -9 10 0 13 103 172 121 187 18 15 139 40 139 28z
m2113 -154 c3 -13 -16 -48 -60 -108 -36 -48 -108 -146 -161 -218 -112 -152
-196 -237 -304 -308 -49 -31 -78 -57 -78 -68 0 -24 -18 -33 -36 -19 -11 10
-22 7 -54 -14 -23 -15 -38 -30 -36 -35 7 -11 -41 -32 -58 -25 -10 4 -20 -6
-30 -30 -16 -38 -25 -43 -43 -25 -18 18 -53 1 -53 -27 0 -26 -9 -31 -27 -13
-9 9 -18 8 -37 -5 -15 -9 -35 -14 -49 -11 -25 7 -75 -9 -91 -29 -13 -15 -101
-36 -151 -36 -42 0 -56 17 -18 22 l28 3 3 115 c1 63 -1 140 -6 170 l-8 55 76
75 c108 107 196 206 241 271 32 48 44 57 74 61 38 4 46 -5 16 -22 -28 -14 -37
-51 -17 -62 22 -12 -1 -48 -31 -48 -30 0 -29 -5 12 -53 19 -22 35 -45 35 -50
0 -10 30 -6 64 8 16 7 18 5 13 -8 -4 -11 -1 -17 7 -17 8 0 22 20 32 45 22 58
28 52 10 -9 -14 -47 -14 -47 12 -57 89 -34 284 82 442 262 30 34 60 66 65 70
6 5 50 42 98 84 49 41 94 75 102 75 7 0 15 -9 18 -19z m-3865 -51 c-13 -20
-28 -27 -28 -12 0 10 22 32 32 32 5 0 3 -9 -4 -20z m1485 -34 c7 -17 -11 -36
-35 -36 -21 0 -22 4 -6 30 15 23 34 26 41 6z m-1456 -102 c-3 -3 -12 -4 -19
-1 -8 3 -5 6 6 6 11 1 17 -2 13 -5z m1727 -30 c4 -10 1 -14 -6 -12 -15 5 -23
28 -10 28 5 0 13 -7 16 -16z m1276 -28 c0 -3 -4 -8 -10 -11 -5 -3 -10 -1 -10
4 0 6 5 11 10 11 6 0 10 -2 10 -4z m-4000 -96 c31 -17 70 -92 70 -137 0 -78
-94 -223 -145 -223 -14 0 -25 -4 -25 -10 0 -18 -38 -11 -45 9 -5 15 -13 17
-56 13 l-50 -5 6 29 c13 58 17 64 37 64 17 0 20 5 16 39 -3 32 0 41 14 44 19
5 25 27 8 27 -5 0 -10 7 -10 15 0 8 6 15 13 15 8 0 24 23 37 51 35 73 79 97
130 69z m2440 -56 c0 -8 -4 -14 -10 -14 -5 0 -10 9 -10 21 0 11 5 17 10 14 6
-3 10 -13 10 -21z m1613 19 c-7 -2 -19 -2 -25 0 -7 3 -2 5 12 5 14 0 19 -2 13
-5z m-3475 -108 c-37 -35 -58 -44 -58 -26 0 14 62 61 80 61 9 0 0 -14 -22 -35z
m1920 -23 c3 -9 -3 -13 -19 -10 -12 1 -24 9 -27 16 -3 9 3 13 19 10 12 -1 24
-9 27 -16z m-2869 -224 c5 -13 5 -27 0 -32 -11 -12 -16 -7 -24 27 -9 33 12 38
24 5z m161 13 c0 -5 -7 -14 -15 -21 -12 -10 -15 -10 -15 2 0 8 3 18 7 21 9 10
23 9 23 -2z m46 -37 c-3 -9 -6 -23 -6 -32 0 -10 -3 -13 -10 -6 -11 11 -2 54
12 54 6 0 7 -7 4 -16z m4324 -14 c-20 -13 -33 -13 -25 0 3 6 14 10 23 10 15 0
15 -2 2 -10z m-4510 -19 c0 -13 -29 -35 -37 -28 -7 8 15 37 28 37 5 0 9 -4 9
-9z m180 -60 c0 -11 -4 -23 -10 -26 -6 -4 -10 5 -10 19 0 14 5 26 10 26 6 0
10 -9 10 -19z m4260 -81 c0 -5 -5 -10 -11 -10 -5 0 -7 5 -4 10 3 6 8 10 11 10
2 0 4 -4 4 -10z m-3446 -76 c22 -9 10 -24 -20 -24 -15 0 -24 6 -24 15 0 16 17
19 44 9z m-2734 -2054 c0 -5 -7 -10 -15 -10 -8 0 -15 5 -15 10 0 6 7 10 15 10
8 0 15 -4 15 -10z m4465 -1770 c-3 -5 -14 -10 -23 -10 -15 0 -15 2 -2 10 20
13 33 13 25 0z m-80 -20 c3 -5 -1 -10 -10 -10 -9 0 -13 5 -10 10 3 6 8 10 10
10 2 0 7 -4 10 -10z"/>
<path d="M4045 6980 c-19 -8 -19 -9 2 -9 12 -1 25 4 28 9 7 12 -2 12 -30 0z"/>
<path d="M3925 6900 c3 -5 11 -10 16 -10 6 0 7 5 4 10 -3 6 -11 10 -16 10 -6
0 -7 -4 -4 -10z"/>
<path d="M3940 6871 c0 -6 4 -12 8 -15 5 -3 9 1 9 9 0 8 -4 15 -9 15 -4 0 -8
-4 -8 -9z"/>
<path d="M1162 6449 c-55 -68 -54 -150 4 -217 30 -36 41 -41 91 -48 48 -6 63
-3 98 16 42 23 85 83 85 119 0 22 -18 22 -138 1 -24 -4 -52 -5 -63 -3 -12 3
-19 0 -19 -8 0 -8 -11 -2 -25 14 -27 30 -32 76 -15 123 14 36 9 37 -18 3z"/>
<path d="M7163 6454 c-17 -9 -59 -47 -92 -86 -54 -62 -61 -74 -61 -112 0 -53
24 -87 84 -116 67 -32 113 -16 185 62 69 74 80 93 81 139 0 44 -32 82 -92 109
-52 24 -64 24 -105 4z"/>
<path d="M8117 6435 c-28 -39 -36 -103 -19 -151 20 -53 90 -104 145 -104 49 0
109 31 138 71 28 40 17 62 -32 65 -19 1 -65 7 -103 12 -38 6 -73 9 -77 6 -16
-9 -31 40 -26 82 5 50 0 54 -26 19z"/>
<path d="M760 5910 c33 -26 52 -25 21 0 -13 11 -28 20 -35 20 -6 0 0 -9 14
-20z"/>
<path d="M2140 5904 c-144 -19 -360 -72 -360 -90 0 -6 -17 -14 -37 -17 -55 -7
-178 -56 -205 -81 -12 -11 -27 -20 -31 -18 -16 5 -146 -109 -218 -192 -162
-185 -239 -341 -239 -483 0 -66 38 -147 103 -219 43 -47 47 -49 96 -47 68 2
141 45 233 137 85 87 88 108 21 138 -155 68 -183 133 -128 287 27 74 77 173
102 202 7 9 32 22 54 29 23 8 51 27 62 42 11 15 30 28 41 28 12 0 47 14 79 30
70 35 142 50 181 37 20 -7 39 -5 73 8 101 39 213 -5 339 -132 84 -84 215 -256
253 -330 75 -148 77 -413 6 -694 -45 -181 -92 -256 -190 -307 -45 -23 -60 -26
-149 -24 -54 1 -104 -2 -110 -7 -6 -5 -27 -12 -46 -16 -50 -10 -53 -15 -34
-36 21 -24 19 -26 -33 -35 l-41 -6 -8 48 c-9 64 -21 94 -36 94 -7 0 -19 4 -26
9 -10 6 2 25 48 72 71 75 164 210 185 269 l15 42 -28 -6 c-26 -6 -26 -6 -7 10
11 8 27 19 35 24 12 7 15 63 20 327 l6 318 31 65 c17 36 41 75 52 87 27 28 26
40 -1 64 -31 25 -89 24 -141 -2 -50 -26 -192 -166 -265 -264 -78 -102 -113
-181 -119 -270 -3 -40 -2 -82 2 -92 5 -10 7 -22 5 -28 -2 -5 -2 -98 -1 -205 2
-197 -9 -321 -32 -369 -10 -20 -19 -25 -40 -23 -20 2 -27 -2 -27 -15 0 -16 -1
-16 -12 0 -11 14 -24 15 -98 8 -145 -16 -249 -68 -334 -169 -38 -45 -62 -84
-72 -120 -15 -49 -14 -55 3 -84 39 -67 145 -88 239 -48 86 37 244 131 244 145
0 24 21 28 36 7 25 -35 90 -53 184 -50 l85 3 0 30 c1 27 4 30 38 33 21 2 37
-1 37 -7 0 -6 -7 -11 -15 -11 -8 0 -15 -5 -15 -11 0 -19 135 -4 230 26 179 56
320 143 464 283 148 145 230 255 302 406 73 154 89 227 89 401 0 127 -4 162
-23 229 -97 335 -382 555 -737 570 -55 2 -116 2 -135 0z m-335 -194 c-3 -5
-11 -10 -16 -10 -6 0 -7 5 -4 10 3 6 11 10 16 10 6 0 7 -4 4 -10z m-36 -852
c13 -35 24 -145 14 -133 -9 10 -43 124 -43 145 0 19 20 10 29 -12z m189 -130
c17 -17 15 -23 -17 -60 -22 -25 -28 -40 -24 -61 6 -28 22 -34 53 -17 14 7 24
5 42 -10 19 -16 20 -19 6 -20 -10 0 -27 -13 -40 -30 -12 -16 -29 -30 -38 -30
-9 0 -21 -5 -28 -12 -9 -9 -12 -8 -16 3 -12 40 -14 77 -3 88 9 9 9 14 -2 20
-8 6 -16 32 -19 65 -4 51 -3 56 19 65 33 13 53 13 67 -1z m37 -668 c3 -5 -1
-10 -9 -10 -9 0 -16 5 -16 10 0 6 4 10 9 10 6 0 13 -4 16 -10z"/>
<path d="M1910 4553 c0 -13 22 -33 37 -33 7 0 13 7 13 15 0 8 -4 15 -9 15 -5
0 -16 3 -25 6 -9 3 -16 2 -16 -3z"/>
<path d="M720 5859 c0 -18 2 -19 15 -9 15 12 12 30 -6 30 -5 0 -9 -10 -9 -21z"/>
<path d="M736 5825 c-28 -26 -38 -58 -11 -35 8 7 15 9 16 4 1 -5 4 2 8 16 4
14 17 27 31 31 22 6 23 7 4 8 -12 1 -33 -10 -48 -24z"/>
<path d="M748 5753 c7 -3 16 -2 19 1 4 3 -2 6 -13 5 -11 0 -14 -3 -6 -6z"/>
<path d="M680 5714 c-10 -28 -10 -39 -1 -42 15 -5 14 -22 -2 -22 -9 0 -21 -35
-36 -107 -30 -149 -34 -183 -19 -183 8 0 5 -5 -4 -11 -10 -5 -18 -17 -18 -24
0 -8 8 -15 18 -16 13 0 12 -2 -5 -9 -15 -6 -22 -17 -22 -32 1 -13 -1 -30 -5
-39 -4 -10 -2 -20 4 -24 8 -5 8 -11 -1 -21 -12 -14 -17 -71 -25 -256 l-4 -98
45 0 c40 0 45 3 45 23 0 12 3 32 6 45 5 19 2 22 -19 22 -36 0 -44 18 -10 22
25 3 28 8 31 42 4 42 -7 55 -48 57 -16 1 -10 4 15 8 28 4 41 12 43 25 5 25 -9
37 -46 38 -17 1 -29 5 -26 10 3 5 20 8 36 6 25 -2 32 2 39 20 7 20 5 25 -11
29 -25 7 -27 21 -3 19 12 0 19 7 21 22 3 17 -2 22 -20 22 -13 0 -30 5 -38 10
-11 7 -3 10 28 10 46 0 56 22 14 28 -33 5 -26 22 9 22 35 0 36 23 1 28 -28 4
-29 23 -1 19 38 -4 31 19 -8 30 l-38 10 43 2 c46 1 55 14 20 26 -22 7 -22 8 5
12 22 4 26 7 17 18 -8 9 -8 15 0 20 19 11 10 25 -16 25 -15 0 -23 4 -19 10 4
6 15 8 25 5 10 -3 21 -2 24 3 3 5 -9 13 -27 18 l-32 8 38 3 c41 5 51 23 13 23
-14 0 -28 5 -31 10 -4 6 9 10 32 10 l38 0 -28 15 c-16 8 -31 14 -35 12 -4 -1
-8 2 -9 8 -2 5 5 10 15 11 46 2 53 5 46 15 -3 6 -15 9 -25 6 -11 -3 -19 -1
-19 4 0 9 22 13 48 10 20 -3 14 17 -8 24 -11 3 -20 11 -20 16 0 6 9 7 20 4 11
-4 20 -2 20 4 0 6 -10 11 -23 11 -13 0 -28 5 -34 11 -8 8 -14 0 -23 -27z m3
-241 c-7 -2 -21 -2 -30 0 -10 3 -4 5 12 5 17 0 24 -2 18 -5z"/>
<path d="M728 5613 c7 -3 16 -2 19 1 4 3 -2 6 -13 5 -11 0 -14 -3 -6 -6z"/>
<path d="M5872 5408 c-18 -18 -15 -28 7 -28 26 0 34 15 18 29 -10 8 -17 7 -25
-1z"/>
<path d="M3198 4744 c-5 -4 -8 -32 -8 -63 0 -39 3 -52 11 -44 5 5 9 34 7 62
-2 29 -6 49 -10 45z"/>
<path d="M766 4585 c-51 -55 -40 -149 23 -209 25 -24 42 -30 88 -34 49 -3 64
0 93 20 40 27 80 82 80 111 0 16 -5 18 -32 13 -18 -3 -71 -11 -117 -17 -82
-12 -85 -12 -103 11 -20 25 -23 65 -8 104 12 33 5 33 -24 1z"/>
<path d="M8491 4452 c-58 -82 -48 -190 22 -242 23 -17 49 -30 58 -30 10 0 21
-5 24 -10 3 -6 17 -8 31 -5 13 3 35 7 49 10 13 3 43 23 65 45 44 43 53 80 20
80 -11 0 -28 4 -38 10 -9 5 -55 13 -102 17 -81 8 -85 9 -99 37 -12 26 -12 35
2 73 13 36 14 43 2 43 -7 0 -23 -13 -34 -28z"/>
<path d="M7119 4255 c-28 -110 -23 -139 23 -142 18 0 27 1 21 4 -19 7 -16 23
5 24 14 0 14 2 -3 9 -17 7 -16 9 9 9 28 1 29 2 10 16 -17 13 -17 14 -1 15 24
0 21 16 -5 25 -22 8 -22 8 5 12 50 8 25 33 -34 33 -16 0 -30 -2 -30 -5z m21
-117 c0 -13 -23 -5 -28 10 -2 7 2 10 12 6 9 -3 16 -11 16 -16z"/>
<path d="M7086 4084 c-9 -24 0 -29 19 -11 19 19 19 27 1 27 -8 0 -17 -7 -20
-16z"/>
<path d="M7098 3953 c6 -2 18 -2 25 0 6 3 1 5 -13 5 -14 0 -19 -2 -12 -5z"/>
<path d="M6686 3265 c-9 -13 -16 -29 -16 -35 0 -6 -4 -8 -10 -5 -21 13 -8 -8
22 -35 30 -28 33 -29 51 -13 18 17 17 18 -5 34 -12 10 -19 21 -15 25 4 4 16
-1 27 -11 11 -10 23 -15 27 -11 4 3 -8 18 -25 32 -17 15 -29 30 -26 35 13 22
-15 6 -30 -16z"/>
<path d="M6755 3260 c3 -5 13 -10 21 -10 8 0 14 5 14 10 0 6 -9 10 -21 10 -11
0 -17 -4 -14 -10z"/>
<path d="M6630 3185 c0 -8 7 -20 15 -27 9 -7 22 -19 30 -26 10 -9 15 -9 21 0
4 7 0 16 -11 22 -10 6 -27 19 -37 29 -14 14 -18 14 -18 2z"/>
<path d="M6600 3132 c0 -15 51 -53 62 -46 6 4 -1 16 -18 30 -30 25 -44 29 -44
16z"/>
<path d="M6560 3084 c0 -9 44 -54 53 -54 19 0 4 31 -23 45 -16 9 -30 13 -30 9z"/>
<path d="M2540 2723 c-8 -3 -30 -19 -47 -36 -35 -32 -44 -78 -23 -116 21 -41
-32 -145 -125 -246 -26 -27 -57 -63 -70 -80 -12 -16 -64 -72 -113 -122 l-91
-93 -59 0 c-57 0 -61 -2 -96 -41 -32 -35 -36 -45 -30 -72 15 -72 80 -148 223
-263 126 -102 216 -149 269 -139 60 11 102 75 87 133 -4 15 -9 46 -12 68 -4
38 -2 45 39 85 23 23 36 39 28 34 -8 -4 12 20 45 54 33 34 59 66 58 70 -1 5
18 26 42 46 25 20 44 41 42 46 -1 6 6 16 16 22 9 7 45 38 79 71 62 58 62 58
110 52 59 -8 106 11 131 53 37 63 14 121 -92 228 -154 157 -346 271 -411 246z"/>
<path d="M6873 2702 c-17 -9 -46 -31 -65 -47 -18 -17 -41 -34 -51 -38 -9 -3
-16 -10 -15 -14 1 -4 -20 -30 -46 -58 -58 -60 -114 -142 -126 -185 -18 -63 27
-108 95 -96 46 9 74 0 84 -27 7 -19 1 -25 -52 -50 -34 -16 -77 -41 -96 -56
-42 -31 -101 -90 -101 -102 0 -4 -6 -14 -12 -21 -89 -96 -93 -336 -8 -468 58
-90 175 -158 296 -173 185 -23 327 51 420 219 33 60 41 65 80 58 44 -8 79 13
160 94 92 92 112 118 140 177 42 89 24 135 -52 135 -22 0 -49 7 -61 15 -25 17
-97 104 -224 270 -271 352 -299 385 -324 384 -5 0 -24 -8 -42 -17z m49 -681
c19 -13 46 -40 59 -60 13 -20 26 -38 29 -41 3 -3 18 -25 35 -49 22 -33 30 -57
31 -95 2 -55 -5 -66 -49 -66 -41 0 -79 23 -130 80 -78 86 -121 212 -86 247 18
18 73 10 111 -16z"/>
<path d="M7582 2441 c-40 -70 -25 -151 36 -198 52 -39 133 -40 183 -2 34 26
67 74 57 84 -4 5 -94 17 -197 28 -46 5 -64 31 -58 85 2 23 4 42 3 42 -1 0 -12
-17 -24 -39z"/>
<path d="M3005 1947 c-95 -32 -140 -68 -178 -142 -32 -61 -41 -117 -29 -171
l9 -41 -38 4 c-45 6 -87 -16 -121 -61 -18 -26 -23 -47 -26 -121 -3 -77 0 -95
17 -122 22 -35 21 -34 166 -117 55 -32 115 -67 134 -78 43 -27 131 -48 201
-48 60 0 161 40 191 76 48 58 63 99 64 174 0 65 -4 84 -32 141 -18 37 -46 79
-62 95 -32 32 -81 102 -81 115 0 16 36 10 52 -8 14 -16 53 -98 46 -98 -1 0 7
-15 17 -32 11 -18 27 -33 37 -33 9 0 20 -4 23 -10 7 -11 48 -13 82 -4 59 16
97 135 74 232 -15 62 -39 88 -94 102 -23 7 -78 35 -122 64 -123 82 -243 112
-330 83z m-124 -480 c16 -17 29 -37 29 -43 0 -6 6 -17 14 -23 17 -14 17 -51 1
-51 -16 0 -52 40 -63 70 -10 28 -25 113 -16 92 3 -7 19 -27 35 -45z"/>
<path d="M3805 1899 c-48 -11 -94 -35 -117 -64 -19 -22 -24 -90 -8 -100 6 -4
22 -25 37 -48 23 -37 25 -47 20 -116 -2 -42 -21 -136 -42 -211 -43 -157 -40
-146 -50 -188 -4 -18 -12 -35 -16 -38 -5 -3 -9 -14 -9 -25 0 -10 -4 -19 -10
-19 -5 0 -10 -6 -10 -13 0 -7 -17 -19 -37 -26 -47 -17 -72 -48 -72 -86 0 -62
74 -110 233 -153 235 -62 318 -55 366 29 25 46 21 67 -20 97 -22 17 -30 31
-30 53 0 44 122 526 169 666 47 139 52 196 20 214 -58 31 -331 49 -424 28z"/>
<path d="M5995 1775 c-68 -18 -145 -54 -145 -66 0 -6 -4 -8 -8 -5 -8 5 -35
-20 -43 -40 -12 -29 -56 -84 -66 -84 -7 0 -15 11 -19 25 -8 33 -29 48 -64 47
-33 -1 -195 -89 -248 -134 -18 -15 -37 -28 -42 -28 -5 0 -24 -13 -42 -30 -18
-16 -29 -30 -25 -30 4 0 -2 -9 -13 -20 -30 -30 -42 -67 -30 -90 6 -10 32 -31
59 -45 55 -31 68 -51 106 -174 35 -113 41 -169 23 -223 -25 -73 9 -121 89
-121 50 -1 139 16 170 31 10 5 32 14 48 20 42 14 139 56 145 62 3 3 17 13 32
23 16 10 27 21 26 25 -1 4 6 21 15 39 26 48 21 68 -23 103 -49 39 -53 46 -95
168 -48 141 -52 165 -25 190 12 11 27 19 34 17 6 -2 23 -6 38 -9 65 -14 121
-169 122 -333 1 -119 13 -141 84 -150 40 -5 171 26 267 65 54 22 176 102 170
112 -3 4 2 13 10 20 18 15 20 71 3 91 -7 8 -31 27 -53 41 -36 23 -44 36 -83
139 -64 167 -117 272 -159 312 -64 63 -153 81 -258 52z"/>
<path d="M4715 1535 c-5 -1 -44 -11 -85 -20 -140 -32 -279 -111 -300 -169 -23
-62 -22 -82 5 -114 19 -22 36 -31 68 -34 59 -6 102 15 166 81 74 76 99 86 136
57 23 -19 29 -32 33 -79 5 -65 15 -59 -136 -75 -160 -16 -291 -96 -326 -199
-41 -120 2 -216 120 -268 95 -42 206 -39 329 10 l67 27 60 -31 c82 -42 163
-43 252 -4 71 31 109 68 141 136 24 52 23 87 -4 87 -28 1 -59 33 -70 75 -6 22
-11 101 -11 175 0 121 -3 140 -24 186 -32 68 -90 112 -184 140 -66 19 -205 30
-237 19z m29 -547 c9 -45 8 -55 -10 -72 -20 -21 -30 -20 -54 4 -29 29 -27 88
2 99 34 13 55 2 62 -31z"/>
<path d="M6397 859 c7 -7 15 -10 18 -7 3 3 -2 9 -12 12 -14 6 -15 5 -6 -5z"/>
<path d="M6250 840 c0 -5 7 -10 16 -10 8 0 12 5 9 10 -3 6 -10 10 -16 10 -5 0
-9 -4 -9 -10z"/>
<path d="M6158 814 c-43 -13 -65 -34 -37 -34 8 0 8 -4 1 -13 -14 -16 -11 -57
3 -57 5 0 36 11 68 24 50 20 55 25 42 36 -13 11 -13 15 -3 21 8 6 3 9 -17 9
-23 0 -27 -3 -15 -10 12 -8 11 -10 -7 -10 -34 0 -36 17 -3 29 17 5 30 12 30
15 0 8 -8 7 -62 -10z m27 -64 c-27 -12 -35 -12 -35 0 0 6 12 10 28 9 24 0 25
-1 7 -9z"/>
<path d="M6267 807 c-8 -20 17 -47 34 -36 10 6 10 9 2 9 -7 0 -13 9 -13 20 0
22 -15 27 -23 7z"/>
</g>
</svg>
